<svg width="78" height="78" viewBox="0 0 78 78" fill="none" xmlns="http://www.w3.org/2000/svg">
<path d="M39.0012 0.111084C45.9011 0.111084 52.4873 1.99285 58.4462 5.44276C64.4051 8.89268 69.1096 13.5971 72.5595 19.556C76.0094 25.515 77.8911 32.1012 77.8911 39.001C77.8911 46.0576 76.0094 52.487 72.5595 58.4459C69.1096 64.4049 64.4051 69.2661 58.4462 72.716C52.4873 76.1659 45.9011 77.8909 39.0012 77.8909C31.9446 77.8909 25.5152 76.1659 19.5563 72.716C13.5973 69.2661 8.73611 64.4049 5.28619 58.4459C1.83628 52.487 0.111328 46.0576 0.111328 39.001C0.111328 32.1012 1.83628 25.515 5.28619 19.556C8.73611 13.5971 13.5973 8.89268 19.5563 5.44276C25.5152 1.99285 31.9446 0.111084 39.0012 0.111084ZM54.8395 57.3482C55.4667 57.3482 55.9372 57.1914 56.4076 56.721C56.878 56.2505 57.1917 55.6233 57.1917 54.996C57.1917 54.3688 57.0349 53.7415 56.7212 53.4279C56.4076 53.1143 56.094 52.6438 55.6235 52.3302C45.5874 46.3713 33.1991 45.1167 18.4586 48.253C17.0473 48.5667 16.42 49.5075 16.42 50.9189C16.42 51.5461 16.5768 52.1734 17.0473 52.6438C17.3609 53.1143 17.9881 53.2711 18.7722 53.2711C19.0858 53.2711 19.5563 53.2711 20.3404 53.1143L20.654 52.9575C33.5127 50.2916 44.3329 51.5461 53.1145 56.721C53.7418 57.1914 54.2122 57.3482 54.8395 57.3482ZM59.0734 46.9985C59.8575 46.9985 60.4848 46.8417 61.112 46.2144C61.7393 45.5872 62.0529 44.9599 62.0529 44.019C62.0529 42.7645 61.4257 41.6668 60.328 40.8828C56.4076 38.6874 52.0168 36.9624 47.3124 35.7079C42.4511 34.4534 37.4331 33.8261 32.415 33.8261C27.2402 33.8261 22.2221 34.6102 17.2041 35.8647C15.4791 36.492 14.695 37.5897 14.695 39.1578C14.695 40.0987 15.0087 40.7259 15.6359 41.3532C16.2632 41.9805 16.8904 42.1373 17.8313 42.1373C18.145 42.1373 18.4586 42.1373 19.0858 41.9805L19.7131 41.8236C25.9857 40.0987 32.5719 39.6283 39.6285 40.5691C46.2147 41.51 52.0168 43.5486 57.0349 46.3713L57.3485 46.5281C57.9757 46.8417 58.4462 46.9985 59.0734 46.9985ZM63.9347 35.0806C64.8756 35.0806 65.6596 34.767 66.4437 34.1398C67.071 33.5125 67.5414 32.5716 67.5414 31.4739C67.5414 29.9058 66.7573 28.8081 65.5028 27.8672C61.112 25.515 56.094 23.6332 50.4487 22.2219C44.8034 20.9674 39.1581 20.3401 33.3559 20.3401C26.4561 20.3401 20.1835 21.281 14.8519 22.8491C14.0678 23.1628 13.4405 23.4764 12.9701 24.1036C12.3428 24.7309 12.186 25.6718 12.186 26.6127C12.186 27.5536 12.4996 28.4944 13.1269 29.1217C13.7542 29.9058 14.695 30.2194 15.7927 30.2194C16.1064 30.2194 16.7336 30.2194 17.5177 29.9058L17.8313 29.749C24.4175 28.024 31.9446 27.5536 40.4126 28.3376C49.1942 29.2785 56.2508 31.3171 61.8961 34.4534C62.5234 34.9238 63.1506 35.0806 63.9347 35.0806Z" fill="black"/>
</svg>
